# xmcd CD database file
#
# Track frame offsets:
#	150
#	21652
#	34665
#	48382
#	62215
#	81407
#	101792
#	119207
#	136827
#	148857
#
# Disc length: 2271 seconds
#
# Revision: 0
# Processed by: cddbd v1.5PL3 Copyright (c) Steve Scherf et al.
# Submitted via: CDex 1.51
#
DISCID=9c08dd0a
DTITLE=Mark Murphy - Midnight Mood
DYEAR=1978
DGENRE=Jazz
TTITLE0=Jump For Joy
TTITLE1=I Don't Want Nothin'
TTITLE2=Why And How
TTITLE3=Alone Together
TTITLE4=You Fascinate Me So
TTITLE5=Hopeless
TTITLE6=Sconsolato
TTITLE7=My Ship
TTITLE8=Just Give Me Time
TTITLE9=I Get Along Without You Very Well
EXTD=YEAR: 1978
EXTT0=
EXTT1=
EXTT2=
EXTT3=
EXTT4=
EXTT5=
EXTT6=
EXTT7=
EXTT8=
EXTT9=
PLAYORDER=
